<svg width="29.000000" height="29.000000" viewBox="0 0 29 29" fill="none" xmlns="http://www.w3.org/2000/svg" xmlns:xlink="http://www.w3.org/1999/xlink">
	<desc>
			Created with Pixso.
	</desc>
	<defs/>
	<path id="Vector" d="M9.06 18.17C9.45 18.2 9.79 18.54 9.82 18.93L10.04 21.46C10.19 21.93 10.74 22.16 11.2 21.94L12.25 21.41C12.5 21.29 12.71 20.95 12.71 20.67L12.72 17.98C12.71 17.79 12.82 17.52 12.96 17.39L14.64 15.71C14.88 15.46 15.19 15.53 15.32 15.85L16.96 19.99C17.22 20.64 17.84 20.77 18.33 20.28L19.09 19.52C19.49 19.12 19.65 18.37 19.43 17.85L17.56 13.14C17.51 13.01 17.55 12.8 17.65 12.69L19.42 10.92C19.98 10.37 20.22 9.31 19.98 8.56C19.89 8.3 19.69 8.09 19.42 8C18.67 7.76 17.61 8.01 17.05 8.57L15.29 10.34C15.18 10.44 14.97 10.48 14.84 10.43L10.13 8.56C9.62 8.34 8.87 8.5 8.47 8.9L7.71 9.66C7.22 10.15 7.35 10.77 8 11.03L12.14 12.67C12.46 12.79 12.53 13.11 12.28 13.35L10.6 15.03C10.47 15.17 10.2 15.28 10.01 15.28L7.33 15.29C7.05 15.29 6.71 15.49 6.58 15.75L6.06 16.79C5.82 17.24 6.05 17.8 6.54 17.95L9.06 18.17Z" stroke="#0C1221" stroke-opacity="1.000000" stroke-width="1.200000" stroke-linejoin="round"/>
	<g opacity="0.000000"/>
</svg>
