<svg width="24.000000" height="24.000000" viewBox="0 0 24 24" fill="none" xmlns="http://www.w3.org/2000/svg" xmlns:xlink="http://www.w3.org/1999/xlink">
	<desc>
			Created with Pixso.
	</desc>
	<defs/>
	<path id="Vector" d="M16.18 2L7.81 2C4.17 2 2 4.16 2 7.81L2 16.17C2 19.83 4.17 22 7.81 22L16.18 22C19.81 22 21.99 19.83 21.99 16.18L21.99 7.81C22 4.16 19.83 2 16.18 2ZM17.68 14.05C17.65 14.13 17.6 14.22 17.53 14.29L14.58 17.24C14.43 17.38 14.24 17.45 14.05 17.45C13.86 17.45 13.67 17.38 13.52 17.24C13.23 16.95 13.23 16.46 13.52 16.17L15.18 14.51L7 14.51C6.58 14.51 6.25 14.16 6.25 13.76C6.25 13.35 6.58 13.01 7 13.01L17 13.01C17.1 13.01 17.18 13.03 17.29 13.07C17.46 13.14 17.62 13.29 17.7 13.48C17.77 13.65 17.77 13.86 17.68 14.05ZM17 10.99L7 10.99C6.9 10.99 6.81 10.97 6.7 10.92C6.53 10.85 6.38 10.71 6.3 10.52C6.21 10.34 6.21 10.12 6.3 9.94C6.34 9.86 6.4 9.78 6.46 9.7L9.42 6.76C9.7 6.46 10.18 6.46 10.48 6.76C10.77 7.05 10.77 7.53 10.48 7.82L8.81 9.48L17 9.48C17.41 9.48 17.75 9.83 17.75 10.24C17.75 10.64 17.41 10.99 17 10.99Z" fill="#292D32" fill-opacity="1.000000" fill-rule="nonzero"/>
	<g opacity="0.000000"/>
</svg>
