<svg width="20.000000" height="20.000000" viewBox="0 0 20 20" fill="none" xmlns="http://www.w3.org/2000/svg" xmlns:xlink="http://www.w3.org/1999/xlink">
	<desc>
			Created with Pixso.
	</desc>
	<defs/>
	<path id="Vector" d="M2.64 6.19L9.99 10.45L17.3 6.22" stroke="#0C1221" stroke-opacity="1.000000" stroke-width="1.200000" stroke-linejoin="round" stroke-linecap="round"/>
	<path id="Vector" d="M17.55 10.45L10 10.45" stroke="#0C1221" stroke-opacity="1.000000" stroke-width="1.200000" stroke-linejoin="round" stroke-linecap="round"/>
	<path id="Vector" d="M3.82 4.53C2.81 5.09 1.99 6.49 1.99 7.64L1.99 12.34C1.99 13.5 2.81 14.89 3.82 15.45L8.27 17.93C9.22 18.45 10.78 18.45 11.73 17.93L16.18 15.45C17.19 14.89 18.01 13.5 18.01 12.34L18.01 7.64C18.01 6.49 17.19 5.09 16.18 4.53L11.73 2.05C10.77 1.53 9.22 1.53 8.27 2.06L3.82 4.53Z" stroke="#0C1221" stroke-opacity="1.000000" stroke-width="1.200000" stroke-linejoin="round"/>
	<g opacity="0.000000"/>
</svg>
