<svg width="17" height="16" viewBox="0 0 17 16" fill="none" xmlns="http://www.w3.org/2000/svg">
<g id="vuesax/bold/category">
<g id="category">
<path id="Vector" d="M5.12785 1.33325H3.86119C2.40119 1.33325 1.63452 2.09992 1.63452 3.55325V4.81992C1.63452 6.27325 2.40119 7.03992 3.85452 7.03992H5.12119C6.57452 7.03992 7.34119 6.27325 7.34119 4.81992V3.55325C7.34785 2.09992 6.58119 1.33325 5.12785 1.33325Z" fill="white"/>
<path id="Vector_2" d="M12.7479 1.33325H11.4812C10.0279 1.33325 9.26123 2.09992 9.26123 3.55325V4.81992C9.26123 6.27325 10.0279 7.03992 11.4812 7.03992H12.7479C14.2012 7.03992 14.9679 6.27325 14.9679 4.81992V3.55325C14.9679 2.09992 14.2012 1.33325 12.7479 1.33325Z" fill="white"/>
<path id="Vector_3" d="M12.7479 8.95337H11.4812C10.0279 8.95337 9.26123 9.72004 9.26123 11.1734V12.44C9.26123 13.8934 10.0279 14.66 11.4812 14.66H12.7479C14.2012 14.66 14.9679 13.8934 14.9679 12.44V11.1734C14.9679 9.72004 14.2012 8.95337 12.7479 8.95337Z" fill="white"/>
<path id="Vector_4" d="M5.12785 8.95337H3.86119C2.40119 8.95337 1.63452 9.72004 1.63452 11.1734V12.44C1.63452 13.9 2.40119 14.6667 3.85452 14.6667H5.12119C6.57452 14.6667 7.34119 13.9 7.34119 12.4467V11.18C7.34785 9.72004 6.58119 8.95337 5.12785 8.95337Z" fill="white"/>
</g>
</g>
</svg>
