<svg width="12" height="12" viewBox="0 0 12 12" fill="none" xmlns="http://www.w3.org/2000/svg">
<g id="vuesax/outline/eye">
<g id="eye">
<path id="Vector" d="M5.99996 8.16496C4.80496 8.16496 3.83496 7.19496 3.83496 5.99996C3.83496 4.80496 4.80496 3.83496 5.99996 3.83496C7.19496 3.83496 8.16496 4.80496 8.16496 5.99996C8.16496 7.19496 7.19496 8.16496 5.99996 8.16496ZM5.99996 4.58496C5.21996 4.58496 4.58496 5.21996 4.58496 5.99996C4.58496 6.77996 5.21996 7.41496 5.99996 7.41496C6.77996 7.41496 7.41496 6.77996 7.41496 5.99996C7.41496 5.21996 6.77996 4.58496 5.99996 4.58496Z" fill="#AEB1BA"/>
<path id="Vector_2" d="M6.00004 10.51C4.12004 10.51 2.34504 9.40999 1.12504 7.49999C0.595039 6.67499 0.595039 5.32999 1.12504 4.49999C2.35004 2.58999 4.12504 1.48999 6.00004 1.48999C7.87504 1.48999 9.65004 2.58999 10.87 4.49999C11.4 5.32499 11.4 6.66999 10.87 7.49999C9.65004 9.40999 7.87504 10.51 6.00004 10.51ZM6.00004 2.23999C4.38504 2.23999 2.84004 3.20999 1.76004 4.90499C1.38504 5.48999 1.38504 6.50999 1.76004 7.09499C2.84004 8.78999 4.38504 9.75999 6.00004 9.75999C7.61504 9.75999 9.16004 8.78999 10.24 7.09499C10.615 6.50999 10.615 5.48999 10.24 4.90499C9.16004 3.20999 7.61504 2.23999 6.00004 2.23999Z" fill="#AEB1BA"/>
</g>
</g>
</svg>
