<svg width="12" height="12" viewBox="0 0 12 12" fill="none" xmlns="http://www.w3.org/2000/svg">
<g id="vuesax/outline/heart">
<g id="heart">
<path id="Vector" d="M6 10.825C5.845 10.825 5.695 10.805 5.57 10.76C3.66 10.105 0.625 7.78005 0.625 4.34505C0.625 2.59505 2.04 1.17505 3.78 1.17505C4.625 1.17505 5.415 1.50505 6 2.09505C6.585 1.50505 7.375 1.17505 8.22 1.17505C9.96 1.17505 11.375 2.60005 11.375 4.34505C11.375 7.78505 8.34 10.105 6.43 10.76C6.305 10.805 6.155 10.825 6 10.825ZM3.78 1.92505C2.455 1.92505 1.375 3.01005 1.375 4.34505C1.375 7.76005 4.66 9.66005 5.815 10.055C5.905 10.085 6.1 10.085 6.19 10.055C7.34 9.66005 10.63 7.76505 10.63 4.34505C10.63 3.01005 9.55 1.92505 8.225 1.92505C7.465 1.92505 6.76 2.28005 6.305 2.89505C6.165 3.08505 5.845 3.08505 5.705 2.89505C5.24 2.27505 4.54 1.92505 3.78 1.92505Z" fill="#AEB1BA"/>
</g>
</g>
</svg>
