<svg width="40" height="40" viewBox="0 0 40 40" fill="none" xmlns="http://www.w3.org/2000/svg">
<path d="M19.2197 0C30.3106 0 39.3015 9.07642 39.3015 20.1673H19.2197V0Z" fill="#6892FE"/>
<path d="M19.2197 40C30.3106 40 39.3015 30.9236 39.3015 19.8327H19.2197V40Z" fill="#6892FE"/>
<ellipse cx="19.4118" cy="20" rx="5.64271" ry="20" fill="#3971FF"/>
<mask id="path-4-inside-1_1_2695" fill="white">
<ellipse cx="8.5047" cy="20" rx="4.8399" ry="15.7927"/>
</mask>
<ellipse cx="8.5047" cy="20" rx="4.8399" ry="15.7927" fill="#3971FF"/>
<path d="M-2.6554 20C-2.6554 23.227 -3.07722 25.5212 -3.37071 26.4789C-3.54764 27.0563 -3.43328 26.3583 -2.56785 25.1639C-1.96343 24.3297 1.57191 19.7927 8.5047 19.7927V51.7927C16.774 51.7927 21.5826 46.3719 23.3451 43.9394C25.3686 41.1467 26.5259 38.1359 27.2248 35.8553C28.683 31.0972 29.3446 25.4951 29.3446 20H-2.6554ZM8.5047 19.7927C15.4375 19.7927 18.9728 24.3297 19.5772 25.1639C20.4427 26.3583 20.557 27.0563 20.3801 26.4789C20.0866 25.5212 19.6648 23.227 19.6648 20H-12.3352C-12.3352 25.4951 -11.6736 31.0972 -10.2154 35.8553C-9.51645 38.1359 -8.35917 41.1467 -6.33567 43.9394C-4.57317 46.3719 0.23541 51.7927 8.5047 51.7927V19.7927ZM19.6648 20C19.6648 16.773 20.0866 14.4787 20.3801 13.5211C20.557 12.9437 20.4427 13.6417 19.5772 14.8361C18.9728 15.6703 15.4375 20.2073 8.5047 20.2073V-11.7927C0.23541 -11.7927 -4.57317 -6.37192 -6.33567 -3.93943C-8.35917 -1.1467 -9.51645 1.86408 -10.2154 4.14464C-11.6736 8.90282 -12.3352 14.5049 -12.3352 20H19.6648ZM8.5047 20.2073C1.57191 20.2073 -1.96343 15.6703 -2.56785 14.8361C-3.43328 13.6417 -3.54764 12.9437 -3.37071 13.5211C-3.07722 14.4787 -2.6554 16.773 -2.6554 20H29.3446C29.3446 14.5049 28.683 8.90282 27.2248 4.14464C26.5259 1.86408 25.3686 -1.1467 23.3451 -3.93943C21.5826 -6.37192 16.774 -11.7927 8.5047 -11.7927V20.2073Z" fill="#3971FF" mask="url(#path-4-inside-1_1_2695)"/>
<mask id="path-6-inside-2_1_2695" fill="white">
<ellipse cx="1.65995" cy="20.0001" rx="1.65995" ry="6.19592"/>
</mask>
<ellipse cx="1.65995" cy="20.0001" rx="1.65995" ry="6.19592" fill="#3971FF"/>
<path d="M-3.68011 20.0001C-3.68011 21.2809 -3.82669 22.1922 -3.92784 22.5698C-3.99209 22.8096 -3.94679 22.4992 -3.60746 21.9635C-3.43178 21.6861 -3.01471 21.0879 -2.2545 20.5072C-1.44069 19.8856 -0.098519 19.196 1.65995 19.196V33.196C5.65611 33.196 7.69993 30.2753 8.2196 29.4548C8.95612 28.292 9.35911 27.0742 9.59525 26.1928C10.0949 24.3279 10.3199 22.1412 10.3199 20.0001H-3.68011ZM1.65995 19.196C3.41841 19.196 4.76058 19.8856 5.57439 20.5072C6.3346 21.0879 6.75167 21.6861 6.92735 21.9635C7.26668 22.4992 7.31198 22.8096 7.24774 22.5698C7.14658 22.1922 7 21.2809 7 20.0001H-7C-7 22.1412 -6.77499 24.3279 -6.27536 26.1928C-6.03922 27.0742 -5.63623 28.292 -4.89971 29.4548C-4.38004 30.2753 -2.33622 33.196 1.65995 33.196V19.196ZM7 20.0001C7 18.7193 7.14658 17.808 7.24774 17.4304C7.31198 17.1906 7.26668 17.5011 6.92735 18.0368C6.75167 18.3141 6.3346 18.9124 5.57439 19.493C4.76058 20.1146 3.41841 20.8042 1.65995 20.8042V6.8042C-2.33622 6.8042 -4.38004 9.72499 -4.89971 10.5454C-5.63623 11.7082 -6.03922 12.926 -6.27536 13.8075C-6.77499 15.6724 -7 17.859 -7 20.0001H7ZM1.65995 20.8042C-0.098519 20.8042 -1.44069 20.1146 -2.2545 19.493C-3.01471 18.9124 -3.43178 18.3141 -3.60746 18.0368C-3.94679 17.5011 -3.99209 17.1906 -3.92784 17.4304C-3.82669 17.808 -3.68011 18.7193 -3.68011 20.0001H10.3199C10.3199 17.859 10.0949 15.6724 9.59525 13.8075C9.35911 12.926 8.95612 11.7082 8.2196 10.5454C7.69993 9.72499 5.65611 6.8042 1.65995 6.8042V20.8042Z" fill="#3971FF" mask="url(#path-6-inside-2_1_2695)"/>
</svg>
