<svg width="42.000000" height="10.000000" viewBox="0 0 40 8" fill="none" xmlns="http://www.w3.org/2000/svg" xmlns:xlink="http://www.w3.org/1999/xlink">
	<desc>
			Created with Pixso.
	</desc>
	<defs/>
	<path id="Vector" d="M4.47 -0.98C3.57 -1.08 2.66 -0.89 1.88 -0.43C1.09 0.02 0.45 0.72 0.06 1.55C-0.33 2.39 -0.45 3.33 -0.3 4.25C-0.15 5.17 0.27 6.01 0.91 6.67C1.55 7.33 2.37 7.77 3.26 7.93C4.15 8.09 5.07 7.96 5.89 7.56C6.7 7.16 7.38 6.51 7.83 5.7C8.27 4.89 8.46 3.96 8.37 3.04C8.26 2.01 7.82 1.05 7.11 0.32C6.4 -0.41 5.47 -0.87 4.47 -0.98ZM4.33 5.87C3.84 5.94 3.35 5.85 2.92 5.62C2.49 5.38 2.14 5.01 1.93 4.56C1.71 4.11 1.64 3.6 1.71 3.11C1.79 2.61 2.02 2.16 2.36 1.8C2.71 1.45 3.15 1.21 3.63 1.13C4.12 1.05 4.61 1.12 5.05 1.34C5.49 1.56 5.85 1.92 6.08 2.36C6.31 2.81 6.4 3.31 6.33 3.81C6.27 4.33 6.03 4.82 5.67 5.19C5.31 5.56 4.84 5.81 4.33 5.87ZM10.71 -0.8C10.56 -0.8 10.41 -0.77 10.27 -0.7C10.13 -0.63 10.01 -0.53 9.92 -0.41C9.82 -0.29 9.75 -0.15 9.72 0C9.68 0.15 9.68 0.31 9.71 0.46C9.81 0.96 10.26 1.3 10.75 1.3L13.59 1.3L9.16 7.31C9.13 7.36 9.11 7.41 9.11 7.46C9.1 7.52 9.11 7.58 9.14 7.63C9.16 7.68 9.2 7.72 9.24 7.75C9.29 7.78 9.34 7.79 9.4 7.79L16.33 7.79C16.82 7.79 17.27 7.45 17.37 6.96C17.4 6.81 17.4 6.65 17.36 6.5C17.33 6.35 17.26 6.2 17.16 6.08C17.07 5.96 16.95 5.86 16.81 5.8C16.67 5.73 16.52 5.69 16.37 5.69L12.91 5.69L17.33 -0.32C17.36 -0.36 17.38 -0.41 17.39 -0.47C17.39 -0.53 17.38 -0.58 17.36 -0.63C17.33 -0.68 17.29 -0.73 17.25 -0.76C17.2 -0.79 17.15 -0.8 17.09 -0.8L10.71 -0.8ZM38.42 -0.78C38.19 -0.72 37.99 -0.59 37.84 -0.4C37.7 -0.2 37.62 0.03 37.63 0.28L37.63 3.77L32.12 -0.74C32.07 -0.77 32.02 -0.79 31.97 -0.8C31.91 -0.81 31.86 -0.8 31.81 -0.77C31.76 -0.75 31.72 -0.71 31.69 -0.66C31.66 -0.61 31.64 -0.56 31.64 -0.5L31.64 6.72C31.64 6.96 31.71 7.2 31.86 7.39C32 7.58 32.21 7.71 32.44 7.77C32.59 7.8 32.74 7.8 32.89 7.77C33.04 7.73 33.18 7.66 33.3 7.56C33.42 7.46 33.51 7.34 33.58 7.2C33.64 7.06 33.68 6.9 33.68 6.75L33.68 3.22L39.19 7.73C39.23 7.76 39.28 7.78 39.34 7.79C39.39 7.8 39.45 7.79 39.5 7.76C39.55 7.74 39.59 7.7 39.62 7.65C39.65 7.6 39.66 7.55 39.66 7.49L39.66 0.25C39.66 0.09 39.63 -0.06 39.56 -0.21C39.5 -0.35 39.4 -0.47 39.28 -0.57C39.16 -0.67 39.02 -0.74 38.87 -0.77C38.73 -0.81 38.57 -0.81 38.42 -0.78ZM24.08 1.1C26.41 1.1 28.15 2.36 28.15 3.49C28.15 4.63 26.41 5.89 24.08 5.89C21.75 5.89 20.01 4.63 20.01 3.49C20.01 2.36 21.75 1.1 24.08 1.1ZM24.08 -1C20.7 -1 17.97 1.01 17.97 3.49C17.97 5.98 20.7 7.99 24.08 7.99C27.45 7.99 30.18 5.98 30.18 3.49C30.18 1.01 27.45 -1 24.08 -1Z" fill="#FFFFFF" fill-opacity="1.000000" fill-rule="evenodd"/>
</svg>
