<svg width="155" height="24" viewBox="0 0 155 24" fill="none" xmlns="http://www.w3.org/2000/svg">
<path d="M0.253514 23V0.119999H9.98151C14.3655 0.119999 17.5335 2.168 17.5335 6.968C17.5335 11.768 14.3655 13.848 9.98151 13.848H4.06151V23H0.253514ZM4.06151 3.352V10.584H9.82151C12.3815 10.584 13.7255 9.496 13.7255 6.968C13.7255 4.472 12.3815 3.352 9.82151 3.352H4.06151ZM19.778 0.119999H23.17V23H19.778V0.119999ZM37.1848 6.648H40.5448V23H37.1848V20.888H37.1208C36.2568 22.168 34.5608 23.448 31.7448 23.448C28.7048 23.448 26.3048 21.688 26.3048 17.944V6.648H29.6968V16.984C29.6968 19.192 30.6248 20.6 32.9288 20.6C35.5208 20.6 37.1848 19.032 37.1848 16.6V6.648ZM50.8173 13.112C53.8253 13.816 57.0893 14.488 57.0893 18.392C57.0893 21.528 54.4013 23.48 50.4333 23.48C45.1533 23.48 42.8813 21.016 42.7213 17.56H45.9853C46.1453 19.32 46.9133 20.824 50.3693 20.824C52.7053 20.824 53.6973 19.672 53.6973 18.648C53.6973 16.6 51.7453 16.44 49.3453 15.864C46.7533 15.256 43.2333 14.744 43.2333 11.032C43.2333 8.344 45.6013 6.2 49.6973 6.2C54.1453 6.2 56.2573 8.6 56.4813 11.448H53.2173C52.9933 10.168 52.3533 8.856 49.7293 8.856C47.7133 8.856 46.6253 9.624 46.6253 10.776C46.6253 12.44 48.4493 12.568 50.8173 13.112ZM59.691 23V0.119999H64.619L71.019 17.72H71.083L77.451 0.119999H82.379V23H78.667V5.656H78.603L72.555 23H69.515L63.467 5.656H63.403V23H59.691ZM95.8833 10.936C95.8833 9.752 95.1793 8.856 92.9393 8.856C90.2513 8.856 89.2593 9.688 89.0993 11.8H85.8353C85.9953 8.664 88.0113 6.2 92.9393 6.2C96.5553 6.2 99.2433 7.576 99.2433 11.928V19.704C99.2433 20.856 99.4993 21.464 100.811 21.336V22.936C100.043 23.224 99.4993 23.288 98.8593 23.288C97.0673 23.288 96.2353 22.648 95.9153 21.048H95.8513C94.8273 22.488 92.9713 23.48 90.4433 23.48C87.1153 23.48 85.0673 21.56 85.0673 18.808C85.0673 15.224 87.7233 14.104 91.8193 13.304C94.3473 12.824 95.8833 12.504 95.8833 10.936ZM91.1793 20.824C93.9633 20.824 95.8833 19.448 95.8833 16.792V14.328C95.3393 14.712 94.0273 15.096 92.4593 15.416C89.6753 16.024 88.4593 16.824 88.4593 18.488C88.4593 19.992 89.3553 20.824 91.1793 20.824ZM110.553 6.264C111.129 6.264 111.545 6.296 112.025 6.36V9.528H111.961C108.729 8.984 106.137 11.16 106.137 14.648V23H102.777V6.648H106.137V9.72H106.201C107.065 7.672 108.409 6.264 110.553 6.264ZM114.183 0.119999H117.543V13.208L124.199 6.648H128.327L122.119 12.728L128.999 23H124.967L119.815 14.936L117.543 17.08V23H114.183V0.119999ZM136.727 20.728C139.511 20.728 140.631 19 140.919 18.008H144.279C143.447 21.112 141.015 23.48 136.823 23.48C131.735 23.48 128.631 19.96 128.631 14.84C128.631 9.528 131.735 6.2 136.663 6.2C141.943 6.2 144.535 9.88 144.535 15.704H131.991C131.991 18.456 133.751 20.728 136.727 20.728ZM136.663 8.856C133.943 8.856 131.991 10.68 131.991 13.208H141.175C141.175 10.68 139.383 8.856 136.663 8.856ZM154.335 9.4H151.263V18.264C151.263 20.12 152.159 20.344 154.335 20.216V22.968C153.663 23.128 152.927 23.224 152.031 23.224C149.343 23.224 147.871 22.008 147.871 18.552V9.4H145.503V6.648H147.871V1.496H151.263V6.648H154.335V9.4Z" fill="#0D1322"/>
</svg>
