<svg width="12.000000" height="12.000000" viewBox="0 0 12 12" fill="none" xmlns="http://www.w3.org/2000/svg" xmlns:xlink="http://www.w3.org/1999/xlink">
	<desc>
			Created with Pixso.
	</desc>
	<defs/>
	<path id="Vector" d="M5.66 0C4.47 0 3.31 0.35 2.33 1.01C1.34 1.67 0.57 2.6 0.12 3.7C-0.34 4.8 -0.45 6 -0.22 7.17C0.01 8.33 0.58 9.4 1.42 10.24C2.26 11.08 3.33 11.65 4.49 11.88C5.65 12.11 6.86 11.99 7.96 11.54C9.05 11.08 9.99 10.32 10.65 9.33C11.31 8.34 11.66 7.18 11.66 6C11.66 4.4 11.03 2.88 9.9 1.75C8.78 0.63 7.25 0 5.66 0L5.66 0ZM6.16 5.93C6.16 6.02 6.14 6.1 6.1 6.18C6.06 6.25 6 6.31 5.93 6.36L4.01 7.56C3.95 7.59 3.89 7.62 3.82 7.63C3.76 7.64 3.69 7.64 3.63 7.62C3.56 7.61 3.5 7.58 3.45 7.54C3.4 7.5 3.35 7.45 3.32 7.4C3.28 7.34 3.26 7.28 3.25 7.22C3.24 7.15 3.24 7.08 3.25 7.02C3.27 6.96 3.3 6.9 3.33 6.84C3.37 6.79 3.42 6.74 3.48 6.71L5.16 5.66L5.16 3.5C5.16 3.36 5.21 3.24 5.31 3.14C5.4 3.05 5.53 3 5.66 3C5.79 3 5.92 3.05 6.02 3.14C6.11 3.24 6.16 3.36 6.16 3.5L6.16 5.93Z" fill="#FF473B" fill-opacity="1.000000" fill-rule="nonzero"/>
</svg>
