<svg width="24.000000" height="24.000000" viewBox="0 0 24 24" fill="none" xmlns="http://www.w3.org/2000/svg" xmlns:xlink="http://www.w3.org/1999/xlink">
	<desc>
			Created with Pixso.
	</desc>
	<defs/>
	<path id="Vector" d="M11.93 2.2L9.52 7.82L7.12 7.82C6.71 7.82 6.32 7.85 5.94 7.93L6.94 5.53L6.98 5.44L7.04 5.28C7.07 5.2 7.09 5.15 7.13 5.1C8.28 2.41 9.58 1.57 11.93 2.2Z" fill="#292D32" fill-opacity="1.000000" fill-rule="nonzero"/>
	<path id="Vector" d="M18.73 8.09L18.7 8.08C18.11 7.9 17.5 7.82 16.87 7.82L10.62 7.82L12.87 2.59L12.9 2.52C13.04 2.57 13.18 2.64 13.34 2.68L15.55 3.62C16.78 4.13 17.64 4.65 18.17 5.3C18.26 5.41 18.34 5.53 18.42 5.65C18.51 5.8 18.58 5.93 18.62 6.09C18.66 6.17 18.68 6.26 18.7 6.35C18.86 6.86 18.87 7.43 18.73 8.09Z" fill="#292D32" fill-opacity="1.000000" fill-rule="nonzero"/>
	<path id="Vector" d="M18.29 9.52C17.84 9.39 17.37 9.32 16.87 9.32L7.12 9.32C6.43 9.32 5.8 9.44 5.19 9.7C3.45 10.46 2.23 12.19 2.23 14.2L2.23 16.15C2.23 16.39 2.26 16.62 2.29 16.86C2.51 20.04 4.2 21.74 7.39 21.95C7.62 21.98 7.84 22 8.09 22L15.9 22C19.6 22 21.55 20.24 21.74 16.74C21.75 16.54 21.76 16.35 21.76 16.15L21.76 14.2C21.76 11.99 20.29 10.13 18.29 9.52ZM14.5 16.19L12.75 16.19L12.75 18C12.75 18.41 12.41 18.75 12 18.75C11.59 18.75 11.25 18.41 11.25 18L11.25 16.19L9.5 16.19C9.08 16.19 8.75 15.86 8.75 15.44C8.75 15.03 9.08 14.69 9.5 14.69L11.25 14.69L11.25 13C11.25 12.59 11.59 12.25 12 12.25C12.41 12.25 12.75 12.59 12.75 13L12.75 14.69L14.5 14.69C14.91 14.69 15.25 15.03 15.25 15.44C15.25 15.86 14.91 16.19 14.5 16.19Z" fill="#292D32" fill-opacity="1.000000" fill-rule="nonzero"/>
	<g opacity="0.000000"/>
</svg>
