<svg width="16" height="16" viewBox="0 0 16 16" fill="none" xmlns="http://www.w3.org/2000/svg">
<g id="vuesax/bold/bag-happy">
<g id="bag-happy">
<path id="Vector" d="M12.8266 3.72012H12.5599L10.3066 1.46679C10.1266 1.28679 9.83325 1.28679 9.64658 1.46679C9.46659 1.64679 9.46659 1.94012 9.64658 2.12679L11.2399 3.72012H4.75992L6.35325 2.12679C6.53325 1.94679 6.53325 1.65345 6.35325 1.46679C6.17325 1.28679 5.87992 1.28679 5.69325 1.46679L3.44659 3.72012H3.17992C2.57992 3.72012 1.33325 3.72012 1.33325 5.42679C1.33325 6.07345 1.46659 6.50012 1.74659 6.78012C1.90659 6.94679 2.09992 7.03345 2.30659 7.08012C2.49992 7.12679 2.70659 7.13345 2.90659 7.13345H13.0933C13.2999 7.13345 13.4933 7.12012 13.6799 7.08012C14.2399 6.94679 14.6666 6.54679 14.6666 5.42679C14.6666 3.72012 13.4199 3.72012 12.8266 3.72012Z" fill="#FF9637"/>
<path id="Vector_2" d="M12.6999 8H3.24661C2.83327 8 2.51994 8.36667 2.58661 8.77333L3.14661 12.2C3.33327 13.3467 3.83327 14.6667 6.05327 14.6667H9.79327C12.0399 14.6667 12.4399 13.54 12.6799 12.28L13.3533 8.79333C13.4333 8.38 13.1199 8 12.6999 8ZM7.99994 13C6.43994 13 5.16661 11.7267 5.16661 10.1667C5.16661 9.89333 5.39327 9.66667 5.66661 9.66667C5.93994 9.66667 6.16661 9.89333 6.16661 10.1667C6.16661 11.18 6.98661 12 7.99994 12C9.01327 12 9.83327 11.18 9.83327 10.1667C9.83327 9.89333 10.0599 9.66667 10.3333 9.66667C10.6066 9.66667 10.8333 9.89333 10.8333 10.1667C10.8333 11.7267 9.55994 13 7.99994 13Z" fill="#FF9637"/>
</g>
</g>
</svg>
