<svg width="16" height="16" viewBox="0 0 16 16" fill="none" xmlns="http://www.w3.org/2000/svg">
<path d="M13.4732 5.21329L8.3399 8.18663C8.13323 8.30663 7.87323 8.30663 7.6599 8.18663L2.52657 5.21329C2.1599 4.99996 2.06657 4.49996 2.34657 4.18663C2.5399 3.96663 2.7599 3.78663 2.99323 3.65996L6.60656 1.65996C7.3799 1.22663 8.63323 1.22663 9.40656 1.65996L13.0199 3.65996C13.2532 3.78663 13.4732 3.97329 13.6666 4.18663C13.9332 4.49996 13.8399 4.99996 13.4732 5.21329Z" fill="#3971FF"/>
<path d="M7.61991 9.42675V13.9734C7.61991 14.4801 7.10657 14.8134 6.65324 14.5934C5.27991 13.9201 2.96657 12.6601 2.96657 12.6601C2.15324 12.2001 1.48657 11.0401 1.48657 10.0867V6.64675C1.48657 6.12008 2.03991 5.78675 2.49324 6.04675L7.28657 8.82675C7.48657 8.95342 7.61991 9.18008 7.61991 9.42675Z" fill="#3971FF"/>
<path d="M8.37988 9.42675V13.9734C8.37988 14.4801 8.89322 14.8134 9.34655 14.5934C10.7199 13.9201 13.0332 12.6601 13.0332 12.6601C13.8465 12.2001 14.5132 11.0401 14.5132 10.0867V6.64675C14.5132 6.12008 13.9599 5.78675 13.5065 6.04675L8.71322 8.82675C8.51322 8.95342 8.37988 9.18008 8.37988 9.42675Z" fill="#3971FF"/>
</svg>
