<svg width="16.000000" height="16.000000" viewBox="0 0 16 16" fill="none" xmlns="http://www.w3.org/2000/svg" xmlns:xlink="http://www.w3.org/1999/xlink">
	<desc>
			Created with Pixso.
	</desc>
	<defs/>
	<path id="Vector" d="M5.87 0.83L3.45 3.25" stroke="#A4A7B0" stroke-opacity="1.000000" stroke-width="1.000000" stroke-linejoin="round" stroke-linecap="round"/>
	<path id="Vector" d="M10.12 0.83L12.54 3.25" stroke="#A4A7B0" stroke-opacity="1.000000" stroke-width="1.000000" stroke-linejoin="round" stroke-linecap="round"/>
	<path id="Vector" d="M2.81 3.39L13.18 3.39C14 3.39 14.66 3.5 14.66 4.73C14.66 6.16 14 6.06 13.18 6.06L2.81 6.06C1.99 6.06 1.33 6.16 1.33 4.73C1.33 3.5 1.99 3.39 2.81 3.39Z" stroke="#A4A7B0" stroke-opacity="1.000000" stroke-width="1.000000"/>
	<path id="Vector" d="M6.5 8.83L8.87 8.83" stroke="#A4A7B0" stroke-opacity="1.000000" stroke-width="1.000000" stroke-linecap="round"/>
	<path id="Vector" d="M9.57 8.83L11.94 8.83" stroke="#A4A7B0" stroke-opacity="1.000000" stroke-width="1.000000" stroke-linecap="round"/>
	<path id="Vector" d="M2.33 6.16L3.27 11.92C3.48 13.22 4 14.16 5.9 14.16L9.92 14.16C12 14.16 12.3 13.26 12.54 12L13.66 6.16" stroke="#A4A7B0" stroke-opacity="1.000000" stroke-width="1.000000" stroke-linecap="round"/>
	<g opacity="0.000000"/>
</svg>
