<svg width="24.000000" height="24.000000" viewBox="0 0 24 24" fill="none" xmlns="http://www.w3.org/2000/svg" xmlns:xlink="http://www.w3.org/1999/xlink">
	<desc>
			Created with Pixso.
	</desc>
	<defs/>
	<path id="Vector" d="M20.04 6.81L14.28 2.79C12.71 1.68 10.3 1.75 8.79 2.91L3.78 6.82C2.78 7.6 1.98 9.2 1.98 10.47L1.98 17.36C1.98 19.91 4.05 22 6.6 22L17.39 22C19.93 22 22.01 19.92 22.01 17.37L22.01 10.59C22.01 9.25 21.14 7.58 20.04 6.81ZM16.87 13.39C16.87 13.79 16.56 14.09 16.17 14.09C15.79 14.09 15.48 13.79 15.48 13.39L15.48 13.22L12.76 15.93C12.61 16.08 12.41 16.15 12.2 16.13C12 16.11 11.8 16 11.7 15.82L10.67 14.31L8.3 16.68C8.16 16.82 7.98 16.88 7.8 16.88C7.63 16.88 7.44 16.81 7.31 16.68C7.05 16.41 7.05 15.98 7.31 15.7L10.3 12.72C10.45 12.56 10.65 12.5 10.86 12.52C11.06 12.54 11.26 12.64 11.37 12.82L12.39 14.34L14.5 12.24L14.31 12.24C13.92 12.24 13.62 11.92 13.62 11.54C13.62 11.14 13.92 10.83 14.31 10.83L16.17 10.83C16.27 10.83 16.36 10.85 16.45 10.88C16.62 10.96 16.76 11.09 16.83 11.27C16.87 11.35 16.87 11.45 16.87 11.54L16.87 13.39Z" fill="#FB731D" fill-opacity="1.000000" fill-rule="nonzero"/>
	<g opacity="0.000000"/>
</svg>
