<svg width="20.000000" height="20.000000" viewBox="0 0 20 20" fill="none" xmlns="http://www.w3.org/2000/svg" xmlns:xlink="http://www.w3.org/1999/xlink">
	<desc>
			Created with Pixso.
	</desc>
	<defs>
		<clipPath id="clip152_17869">
			<rect id="Icon right 16px" width="20.000000" height="20.000000" transform="matrix(-1 0 0 1 20 0)" fill="white" fill-opacity="0"/>
		</clipPath>
	</defs>
	<g clip-path="url(#clip152_17869)">
		<path id="Shape" d="M5.58 15.58C5.26 15.91 4.73 15.91 4.41 15.58C4.08 15.26 4.08 14.73 4.41 14.41L8.82 9.99L4.41 5.58C4.08 5.26 4.08 4.73 4.41 4.41C4.73 4.08 5.26 4.08 5.58 4.41L10 8.82L14.41 4.41C14.73 4.08 15.26 4.08 15.58 4.41C15.91 4.73 15.91 5.26 15.58 5.58L11.17 9.99L15.58 14.41C15.91 14.73 15.91 15.26 15.58 15.58C15.26 15.91 14.73 15.91 14.41 15.58L10 11.17L5.58 15.58Z" fill="#0C1221" fill-opacity="1.000000" fill-rule="nonzero"/>
	</g>
</svg>
