<svg width="12" height="12" viewBox="0 0 12 12" fill="none" xmlns="http://www.w3.org/2000/svg">
<g id="StarIcon">
<path id="Star 8" d="M5.64143 0.72688C5.78815 0.429582 6.21209 0.429581 6.35882 0.72688L7.67041 3.38446C7.72867 3.50251 7.8413 3.58434 7.97158 3.60327L10.9044 4.02944C11.2325 4.07711 11.3635 4.4803 11.1261 4.71171L9.00388 6.78035C8.9096 6.87224 8.86658 7.00464 8.88884 7.1344L9.38982 10.0554C9.44587 10.3821 9.10289 10.6313 8.80944 10.477L6.18626 9.09794C6.06973 9.03668 5.93051 9.03668 5.81398 9.09794L3.1908 10.477C2.89735 10.6313 2.55437 10.3821 2.61042 10.0554L3.1114 7.1344C3.13366 7.00465 3.09064 6.87224 2.99636 6.78035L0.874162 4.71171C0.636755 4.4803 0.767759 4.07711 1.09585 4.02944L4.02866 3.60327C4.15894 3.58434 4.27157 3.50251 4.32983 3.38446L5.64143 0.72688Z" fill="#F6B72B"/>
</g>
</svg>
