<svg width="6.000000" height="11.000000" viewBox="0 0 6 11" fill="none" xmlns="http://www.w3.org/2000/svg" xmlns:xlink="http://www.w3.org/1999/xlink">
	<desc>
			Created with Pixso.
	</desc>
	<defs/>
	<path id="Vector" d="M-0.07 10.78C-0.19 10.78 -0.32 10.73 -0.42 10.63C-0.61 10.43 -0.61 10.12 -0.42 9.92L3.93 5.58C4.25 5.26 4.25 4.73 3.93 4.41L-0.42 0.07C-0.61 -0.12 -0.61 -0.44 -0.42 -0.64C-0.23 -0.83 0.09 -0.83 0.29 -0.64L4.63 3.71C4.97 4.05 5.17 4.51 5.17 5C5.17 5.48 4.98 5.94 4.63 6.28L0.29 10.63C0.19 10.72 0.06 10.78 -0.07 10.78Z" fill="#A4A7B0" fill-opacity="1.000000" fill-rule="nonzero"/>
</svg>
