<svg width="16" height="16" viewBox="0 0 16 16" fill="none" xmlns="http://www.w3.org/2000/svg">
<path d="M2.38353 4.25174L2.6648 4.66513L2.38353 4.25174L1.04576 5.16199C0.630982 5.44421 0.459712 5.97133 0.629388 6.44346L1.17663 7.96618C1.18449 7.98804 1.18449 8.01196 1.17663 8.03382L0.629388 9.55654L1.09992 9.72565L0.629388 9.55654C0.459712 10.0287 0.630983 10.5558 1.04576 10.838L2.38353 11.7483C2.40273 11.7613 2.41679 11.7807 2.42329 11.803L2.87559 13.3565C3.01583 13.8382 3.46422 14.164 3.96567 14.1485L5.58297 14.0986C5.60619 14.0979 5.62894 14.1053 5.6473 14.1195L5.95353 13.7243L5.6473 14.1195L6.92639 15.1105C7.32298 15.4178 7.87722 15.4178 8.27381 15.1105L9.55289 14.1195C9.57126 14.1053 9.594 14.0979 9.61722 14.0986L11.2345 14.1485C11.736 14.164 12.1844 13.8382 12.3246 13.3565L12.7769 11.803C12.7834 11.7807 12.7975 11.7613 12.8167 11.7483L14.1544 10.838C14.5692 10.5558 14.7405 10.0287 14.5708 9.55654L14.0236 8.03382C14.0157 8.01196 14.0157 7.98804 14.0236 7.96618L14.5708 6.44346L14.1003 6.27435L14.5708 6.44346C14.7405 5.97133 14.5692 5.44421 14.1544 5.16199L12.8167 4.25174C12.7975 4.23868 12.7834 4.21933 12.7769 4.19702L12.3246 2.64345C12.1844 2.16176 11.736 1.83598 11.2345 1.85146L9.61722 1.90137C9.594 1.90209 9.57126 1.8947 9.55289 1.88047L8.27381 0.889464C7.87722 0.582197 7.32298 0.582197 6.92639 0.889464L5.6473 1.88047C5.62894 1.8947 5.60619 1.90209 5.58297 1.90137L3.96567 1.85146C3.46422 1.83598 3.01583 2.16176 2.87559 2.64345L2.42329 4.19702C2.41679 4.21933 2.40273 4.23867 2.38353 4.25174Z" fill="#3D73FF" stroke="white"/>
<path fill-rule="evenodd" clip-rule="evenodd" d="M10.4374 5.99773C10.543 6.10582 10.543 6.28107 10.4374 6.38915L6.90894 10.0023C6.80338 10.1104 6.63224 10.1104 6.52668 10.0023L4.76244 8.19571C4.65688 8.08762 4.65688 7.91238 4.76244 7.80429C4.86799 7.6962 5.03913 7.6962 5.14469 7.80429L6.71781 9.41514L10.0552 5.99773C10.1607 5.88964 10.3319 5.88964 10.4374 5.99773Z" fill="white"/>
<path fill-rule="evenodd" clip-rule="evenodd" d="M10.5567 5.88129C10.7255 6.05413 10.7255 6.33276 10.5567 6.5056L7.02818 10.1187C6.85723 10.2938 6.57839 10.2938 6.40744 10.1187L4.6432 8.31216C4.4744 8.13932 4.4744 7.86068 4.6432 7.68784C4.81414 7.5128 5.09298 7.5128 5.26393 7.68784L6.71781 9.17659L9.93594 5.88129C10.1069 5.70624 10.3857 5.70624 10.5567 5.88129ZM6.71781 9.41514L5.14469 7.80429C5.03913 7.6962 4.86799 7.6962 4.76244 7.80429C4.65688 7.91238 4.65688 8.08762 4.76244 8.19571L6.52668 10.0023C6.63224 10.1104 6.80338 10.1104 6.90894 10.0023L10.4374 6.38915C10.543 6.28107 10.543 6.10582 10.4374 5.99773C10.3319 5.88964 10.1607 5.88964 10.0552 5.99773L6.71781 9.41514Z" fill="white"/>
</svg>
