<svg width="34.000000" height="15.000000" viewBox="0 0 34 15" fill="none" xmlns="http://www.w3.org/2000/svg" xmlns:xlink="http://www.w3.org/1999/xlink">
	<desc>
			Created with Pixso.
	</desc>
	<defs/>
	<path id="Vector" d="M4.07 15L0 0L2.67 0L5.8 11.52L9.16 0L11.65 0L15.02 11.58L18.17 0L20.85 0L16.77 14.99L13.67 14.99L10.41 3.79L7.15 14.99L4.07 15ZM34 10.71C34 11.93 33.56 12.95 32.66 13.77C31.77 14.58 30.71 14.99 29.41 14.99L22.9 14.99L22.9 0L28.94 0C30.18 0 31.24 0.42 32.1 1.2C32.98 1.99 33.4 2.98 33.4 4.15C33.4 5.47 32.87 6.47 31.85 7.21C33.19 7.9 34 9.15 34 10.71ZM25.41 2.32L25.41 6.26L28.96 6.26C30.06 6.26 30.9 5.4 30.9 4.29C30.9 3.19 30.06 2.32 28.96 2.32L25.41 2.32ZM29.43 12.68C30.59 12.68 31.5 11.76 31.5 10.58C31.5 9.41 30.59 8.49 29.43 8.49L25.41 8.49L25.41 12.69L29.43 12.69L29.43 12.68Z" fill="#FFFFFF" fill-opacity="1.000000" fill-rule="nonzero"/>
</svg>
